<svg xmlns="http://www.w3.org/2000/svg" viewBox="0 0 600 450" fill="none">
  <defs>
    <linearGradient id="bg" x1="0" y1="0" x2="600" y2="450">
      <stop offset="0%" stop-color="#111827"/>
      <stop offset="100%" stop-color="#1e293b"/>
    </linearGradient>
    <linearGradient id="accent" x1="0" y1="0" x2="1" y2="1">
      <stop offset="0%" stop-color="#06b6d4"/>
      <stop offset="100%" stop-color="#8b5cf6"/>
    </linearGradient>
  </defs>
  <rect width="600" height="450" rx="16" fill="url(#bg)"/>
  <!-- Toolbar -->
  <rect x="20" y="20" width="560" height="40" rx="8" fill="white" opacity="0.05"/>
  <circle cx="40" cy="40" r="6" fill="#ef4444" opacity="0.8"/>
  <circle cx="60" cy="40" r="6" fill="#eab308" opacity="0.8"/>
  <circle cx="80" cy="40" r="6" fill="#22c55e" opacity="0.8"/>
  <!-- Sidebar -->
  <rect x="20" y="70" width="120" height="360" rx="8" fill="white" opacity="0.05"/>
  <rect x="35" y="90" width="90" height="12" rx="4" fill="url(#accent)" opacity="0.6"/>
  <rect x="35" y="115" width="70" height="8" rx="3" fill="white" opacity="0.15"/>
  <rect x="35" y="135" width="80" height="8" rx="3" fill="white" opacity="0.15"/>
  <rect x="35" y="155" width="60" height="8" rx="3" fill="white" opacity="0.15"/>
  <!-- Main canvas area -->
  <rect x="155" y="70" width="425" height="300" rx="8" fill="white" opacity="0.03"/>
  <!-- Image placeholder with gradient -->
  <rect x="175" y="90" width="385" height="260" rx="8" fill="url(#accent)" opacity="0.15"/>
  <path d="M250 280 L310 200 L370 240 L430 160 L490 280" stroke="url(#accent)" stroke-width="3" fill="none" opacity="0.6"/>
  <circle cx="420" cy="170" r="20" fill="url(#accent)" opacity="0.4"/>
  <!-- Bottom panel -->
  <rect x="155" y="385" width="425" height="45" rx="8" fill="white" opacity="0.05"/>
  <rect x="175" y="400" width="80" height="16" rx="4" fill="url(#accent)" opacity="0.5"/>
  <rect x="270" y="403" width="60" height="10" rx="3" fill="white" opacity="0.1"/>
  <rect x="345" y="403" width="60" height="10" rx="3" fill="white" opacity="0.1"/>
</svg>
